<svg width="40" height="40" viewBox="0 0 40 40" fill="none" xmlns="http://www.w3.org/2000/svg">
<path d="M20.0002 3.33325C10.9652 3.33325 3.3335 10.9649 3.3335 19.9999C3.3335 25.3149 5.98683 30.1299 10.0002 33.2066V33.3333H10.1702C12.9502 35.4083 16.3552 36.6666 20.0002 36.6666C23.6452 36.6666 27.0502 35.4083 29.8302 33.3333H30.0002V33.2066C34.0135 30.1299 36.6668 25.3166 36.6668 19.9999C36.6668 10.9649 29.0352 3.33325 20.0002 3.33325ZM13.4568 31.5449C13.7024 30.4339 14.3194 29.4398 15.2059 28.7266C16.0925 28.0133 17.1957 27.6236 18.3335 27.6216H21.6668C22.8046 27.6239 23.9076 28.0137 24.7941 28.7269C25.6806 29.4401 26.2976 30.434 26.5435 31.5449C24.5968 32.6733 22.3602 33.3333 20.0002 33.3333C17.6402 33.3333 15.4035 32.6733 13.4568 31.5449ZM29.3502 29.4016C28.7144 27.888 27.6464 26.5956 26.2797 25.6861C24.9131 24.7765 23.3085 24.2903 21.6668 24.2883H18.3335C16.6918 24.2903 15.0873 24.7765 13.7206 25.6861C12.3539 26.5956 11.2859 27.888 10.6502 29.4016C8.20516 26.9699 6.66683 23.6266 6.66683 19.9999C6.66683 12.7716 12.7718 6.66659 20.0002 6.66659C27.2285 6.66659 33.3335 12.7716 33.3335 19.9999C33.3335 23.6266 31.7952 26.9699 29.3502 29.4016Z" fill="black"/>
<path d="M20.0002 10C16.2002 10 13.3335 12.8667 13.3335 16.6667C13.3335 20.4667 16.2002 23.3333 20.0002 23.3333C23.8002 23.3333 26.6668 20.4667 26.6668 16.6667C26.6668 12.8667 23.8002 10 20.0002 10ZM20.0002 20C18.0368 20 16.6668 18.63 16.6668 16.6667C16.6668 14.7033 18.0368 13.3333 20.0002 13.3333C21.9635 13.3333 23.3335 14.7033 23.3335 16.6667C23.3335 18.63 21.9635 20 20.0002 20Z" fill="black"/>
</svg>
